<svg width="181" height="60" viewBox="0 0 181 60" fill="none" xmlns="http://www.w3.org/2000/svg">
<path d="M31.25 14.375V21.165L31.3675 21.16C32.1475 21.13 33.2225 21.12 33.995 21.275C34.695 21.415 35.3525 21.725 35.84 21.995C36.5225 22.375 36.98 22.9575 37.24 23.6L37.57 23.57C38.35 23.51 39.555 23.475 40.465 23.84C41.39 24.21 42.1875 25.0575 42.665 25.63C42.8534 25.8583 43.0159 26.065 43.1525 26.25H44.6075C45.3061 26.25 45.9969 26.3964 46.6354 26.6798C47.2739 26.9631 47.846 27.3771 48.3147 27.895C48.7834 28.413 49.1384 29.0234 49.3568 29.6869C49.5751 30.3505 49.6521 31.0524 49.5825 31.7475L48.9025 38.535C48.7805 39.7576 48.4022 40.9408 47.7925 42.0075L44.305 48.11C43.9772 48.684 43.5035 49.1611 42.9318 49.493C42.3602 49.8249 41.711 49.9998 41.05 50H25.295C24.5983 50 23.9153 49.8058 23.3226 49.4393C22.73 49.0728 22.2513 48.5484 21.94 47.925L18.9025 41.85L12.675 31.4725C12.2023 30.679 12.0355 29.7402 12.2058 28.8324C12.3761 27.9246 12.8718 27.1101 13.5999 26.5419C14.3281 25.9736 15.2386 25.6906 16.1605 25.7459C17.0825 25.8013 17.9526 26.1912 18.6075 26.8425L22.5 30.7325V14.375C22.5 13.2147 22.961 12.1019 23.7815 11.2814C24.6019 10.4609 25.7147 10 26.875 10C28.0354 10 29.1482 10.4609 29.9686 11.2814C30.7891 12.1019 31.25 13.2147 31.25 14.375Z" fill="white"/>
<path d="M65.928 39.74C65.256 39.74 64.592 39.66 63.936 39.5C63.28 39.324 62.696 39.116 62.184 38.876C61.672 38.62 61.288 38.364 61.032 38.108L62.304 35.828C62.48 35.972 62.752 36.164 63.12 36.404C63.504 36.628 63.944 36.828 64.44 37.004C64.936 37.18 65.432 37.268 65.928 37.268C66.744 37.268 67.424 37.076 67.968 36.692C68.528 36.308 68.808 35.748 68.808 35.012C68.808 34.404 68.648 33.9 68.328 33.5C68.008 33.1 67.584 32.748 67.056 32.444C66.544 32.14 65.984 31.852 65.376 31.58C64.784 31.292 64.216 30.972 63.672 30.62C63.048 30.204 62.504 29.652 62.04 28.964C61.576 28.276 61.344 27.388 61.344 26.3C61.344 25.228 61.584 24.348 62.064 23.66C62.56 22.972 63.208 22.46 64.008 22.124C64.824 21.772 65.712 21.596 66.672 21.596C67.44 21.596 68.096 21.676 68.64 21.836C69.184 21.996 69.64 22.188 70.008 22.412C70.376 22.636 70.664 22.836 70.872 23.012L69.6 25.196C69.328 24.908 68.92 24.644 68.376 24.404C67.832 24.148 67.224 24.02 66.552 24.02C65.768 24.02 65.144 24.204 64.68 24.572C64.216 24.924 63.984 25.452 63.984 26.156C63.984 26.78 64.192 27.316 64.608 27.764C65.024 28.196 65.552 28.596 66.192 28.964C66.848 29.316 67.52 29.676 68.208 30.044C68.896 30.412 69.504 30.844 70.032 31.34C70.464 31.724 70.832 32.204 71.136 32.78C71.44 33.356 71.592 34.004 71.592 34.724C71.592 35.812 71.336 36.732 70.824 37.484C70.328 38.236 69.656 38.804 68.808 39.188C67.96 39.556 67 39.74 65.928 39.74ZM74.3413 39.5V28.484H77.0293V39.5H74.3413ZM75.6853 26.42C75.1893 26.42 74.7733 26.252 74.4373 25.916C74.1173 25.58 73.9573 25.164 73.9573 24.668C73.9573 24.22 74.1173 23.836 74.4373 23.516C74.7733 23.196 75.1893 23.036 75.6853 23.036C76.1813 23.036 76.5893 23.196 76.9093 23.516C77.2453 23.836 77.4133 24.22 77.4133 24.668C77.4133 25.164 77.2453 25.58 76.9093 25.916C76.5893 26.252 76.1813 26.42 75.6853 26.42ZM85.6654 45.26C85.0414 45.26 84.4414 45.196 83.8654 45.068C83.3054 44.94 82.8174 44.796 82.4014 44.636C81.9854 44.492 81.7054 44.38 81.5614 44.3L82.1374 41.9C82.5214 42.156 82.9934 42.388 83.5534 42.596C84.1134 42.82 84.7934 42.932 85.5934 42.932C85.9614 42.932 86.3374 42.892 86.7214 42.812C87.1214 42.748 87.4974 42.596 87.8494 42.356C88.2014 42.132 88.4814 41.788 88.6894 41.324C88.9134 40.876 89.0254 40.276 89.0254 39.524V37.556C88.7054 38.148 88.1694 38.66 87.4174 39.092C86.6814 39.524 85.8414 39.74 84.8974 39.74C83.9374 39.74 83.0574 39.508 82.2574 39.044C81.4734 38.564 80.8414 37.892 80.3614 37.028C79.8974 36.148 79.6654 35.116 79.6654 33.932C79.6654 32.796 79.8814 31.804 80.3134 30.956C80.7614 30.092 81.3854 29.42 82.1854 28.94C83.0014 28.444 83.9614 28.196 85.0654 28.196C85.7374 28.196 86.3534 28.316 86.9134 28.556C87.4734 28.78 87.9374 29.06 88.3054 29.396C88.6894 29.716 88.9454 30.028 89.0734 30.332L89.1214 28.484H91.5694V39.428C91.5694 41.236 91.0974 42.66 90.1534 43.7C89.2254 44.74 87.7294 45.26 85.6654 45.26ZM85.6174 37.556C86.2094 37.556 86.7454 37.42 87.2254 37.148C87.7214 36.86 88.1134 36.46 88.4014 35.948C88.7054 35.436 88.8574 34.828 88.8574 34.124V33.956C88.8574 33.236 88.7054 32.612 88.4014 32.084C88.1134 31.54 87.7214 31.124 87.2254 30.836C86.7454 30.532 86.2094 30.38 85.6174 30.38C84.5454 30.38 83.7374 30.724 83.1934 31.412C82.6654 32.1 82.4014 32.948 82.4014 33.956C82.4014 34.98 82.6654 35.836 83.1934 36.524C83.7374 37.212 84.5454 37.556 85.6174 37.556ZM94.6337 39.5V28.484H97.1777L97.2017 30.5C97.4897 29.844 97.9537 29.3 98.5937 28.868C99.2497 28.42 100.034 28.196 100.946 28.196C102.13 28.196 103.018 28.444 103.61 28.94C104.202 29.42 104.594 30.108 104.786 31.004C104.994 31.9 105.098 32.964 105.098 34.196V39.5H102.506V34.268C102.506 32.988 102.378 32.012 102.122 31.34C101.882 30.668 101.314 30.332 100.418 30.332C99.9537 30.332 99.4737 30.476 98.9777 30.764C98.4817 31.052 98.0657 31.468 97.7297 32.012C97.3937 32.556 97.2257 33.228 97.2257 34.028V39.5H94.6337ZM117.39 39.5L113.142 31.268L112.038 28.772L111.534 31.268L109.902 39.5H107.238L110.886 21.86H111.174L116.022 31.388L117.462 34.58L118.902 31.388L123.654 21.86H123.918L127.71 39.5H125.07L123.294 31.268L122.766 28.772L121.806 31.268L117.534 39.5H117.39ZM134.685 39.74C133.709 39.74 132.797 39.508 131.949 39.044C131.117 38.58 130.445 37.916 129.933 37.052C129.421 36.188 129.165 35.156 129.165 33.956C129.165 32.804 129.381 31.796 129.813 30.932C130.261 30.068 130.885 29.396 131.685 28.916C132.501 28.436 133.469 28.196 134.589 28.196C135.261 28.196 135.869 28.316 136.413 28.556C136.973 28.78 137.437 29.06 137.805 29.396C138.189 29.716 138.445 30.028 138.573 30.332L138.621 28.484H141.093V39.5H138.645L138.597 37.556C138.437 37.908 138.165 38.252 137.781 38.588C137.413 38.924 136.965 39.204 136.437 39.428C135.909 39.636 135.325 39.74 134.685 39.74ZM135.117 37.58C135.709 37.58 136.245 37.444 136.725 37.172C137.221 36.884 137.613 36.484 137.901 35.972C138.205 35.46 138.357 34.852 138.357 34.148V33.98C138.357 33.26 138.205 32.636 137.901 32.108C137.613 31.564 137.221 31.148 136.725 30.86C136.245 30.556 135.709 30.404 135.117 30.404C134.045 30.404 133.237 30.748 132.693 31.436C132.165 32.124 131.901 32.972 131.901 33.98C131.901 35.004 132.165 35.86 132.693 36.548C133.237 37.236 134.045 37.58 135.117 37.58ZM144.181 39.5V28.484H146.725L146.749 30.5C147.037 29.844 147.501 29.3 148.141 28.868C148.797 28.42 149.581 28.196 150.493 28.196C151.677 28.196 152.565 28.444 153.157 28.94C153.749 29.42 154.141 30.108 154.333 31.004C154.541 31.9 154.645 32.964 154.645 34.196V39.5H152.053V34.268C152.053 32.988 151.925 32.012 151.669 31.34C151.429 30.668 150.861 30.332 149.965 30.332C149.501 30.332 149.021 30.476 148.525 30.764C148.029 31.052 147.613 31.468 147.277 32.012C146.941 32.556 146.773 33.228 146.773 34.028V39.5H144.181ZM162.623 39.74C161.647 39.74 160.735 39.508 159.887 39.044C159.055 38.58 158.383 37.916 157.871 37.052C157.359 36.188 157.103 35.156 157.103 33.956C157.103 32.804 157.319 31.796 157.751 30.932C158.199 30.068 158.823 29.396 159.623 28.916C160.439 28.436 161.407 28.196 162.527 28.196C163.199 28.196 163.807 28.316 164.351 28.556C164.911 28.78 165.375 29.06 165.743 29.396C166.127 29.716 166.383 30.028 166.511 30.332L166.559 28.484H169.031V39.5H166.583L166.535 37.556C166.375 37.908 166.103 38.252 165.719 38.588C165.351 38.924 164.903 39.204 164.375 39.428C163.847 39.636 163.263 39.74 162.623 39.74ZM163.055 37.58C163.647 37.58 164.183 37.444 164.663 37.172C165.159 36.884 165.551 36.484 165.839 35.972C166.143 35.46 166.295 34.852 166.295 34.148V33.98C166.295 33.26 166.143 32.636 165.839 32.108C165.551 31.564 165.159 31.148 164.663 30.86C164.183 30.556 163.647 30.404 163.055 30.404C161.983 30.404 161.175 30.748 160.631 31.436C160.103 32.124 159.839 32.972 159.839 33.98C159.839 35.004 160.103 35.86 160.631 36.548C161.175 37.236 161.983 37.58 163.055 37.58Z" fill="white"/>
</svg>
